<svg version="1.2" xmlns="http://www.w3.org/2000/svg" viewBox="0 0 185 185" width="185" height="185">
	<title>logo-svg</title>
	<defs>
		<linearGradient id="g1" x2="1" gradientUnits="userSpaceOnUse" gradientTransform="matrix(185,0,0,185,0,92)">
			<stop offset="0" stop-color="#ffdb6e"/>
			<stop offset="1" stop-color="#ffbc5e"/>
		</linearGradient>
	</defs>
	<style>
		.s0 { fill: url(#g1) } 
		.s1 { fill: #000000 } 
	</style>
	<path id="Layer" class="s0" d="m0 92.5c0-51.1 41.4-92.5 92.5-92.5h42.5c27.6 0 50 22.4 50 50v42.5c0 51.1-41.4 92.5-92.5 92.5-51.1 0-92.5-41.4-92.5-92.5z"/>
	<path id="K" class="s1" aria-label="K"  d="m35.5 140.1q-4.7 0-8.3-2.3-3.4-2.4-4.9-7 0-0.3-0.2-0.6 0-0.3 0-0.6 0-1 0.3-1.8 0.3-0.7 0.7-0.7 1.1 0 1.7 2.8 1.5 3.8 4.5 5 3 1 6.7 1 1.3 0 2.5-0.1 1.2-0.2 2.2-0.5 6.8-2.1 12.6-7.5 6-5.5 11.1-13.2 5.1-7.8 9.3-16.6 4.3-9 7.8-18 3.5-9.2 6-17.3 2.7-8.2 4.5-14.2-4.2 3.9-9.5 5.8-5.2 2-9.7 2.6h-0.1q-1.7 0-1.7-1.2 0-1.2 1.8-1.4 4.4-0.4 8.9-3.3 4.5-3 8.3-7.5 4.1-4.6 6.5-10 0.3-0.8 1.9-1.2 1.8-0.6 3.6-0.6 1.7 0 2.9 0.4 1.3 0.5 1 1.4-6 14.5-11.7 29.5-5.5 15-12.5 29.6 3-3.8 6.1-7.4 3.3-3.7 7.4-7.9v-2q0-1.2 0-2.1 0-0.9 0.1-1.8 0.3-0.7 0.9-1.8 0.6-1 1.2-1 0.6 0 1 1.9 0 0.6 0 1.1 0.2 0.4 0.3 1l0.3-0.3q1.4-1.3 5.2-4.6 3.7-3.4 8.8-7.8 5.2-4.5 11-9.2 5.6-4.8 10.7-9 5.1-4.3 8.9-7.2 3.7-2.8 5-3.4 2.2-1.2 4-1.7 2-0.4 3.3-0.4 2.4 0 3.4 1 1.3 0.9 1.3 2.3 0 2.7-3.5 4.5-4.5 2.1-10.7 5.7-6.1 3.4-12.8 7.8-6.8 4.2-13.3 8.8-6.4 4.5-11.8 8.9-5.4 4.3-8.7 7.9 2.2 7.9 4.4 13.7 2 5.7 5 10.9 3.2 5.1 8.3 11.6 3.5 4 7 6.4 3.6 2.4 6.5 2.4 2.6 0 3.4-1.1 1.1-1.1 1.1-2.8 0-2.1-1.1-4.3-1-2.3-2.1-3.8-0.7-1.2-0.7-1.6 0-0.6 0.7-0.6 1.5 0 2.9 1.3 0.7 0.8 1.9 3.3 1.4 2.5 1.4 4.5 0 3-2.1 5.1-2.1 2.1-4.8 3.2-2.7 0.9-4.6 0.9-7.1 0-12.5-4.1-5.3-4.1-9-10.5-3.6-6.6-6-14.2-2.4-7.9-3.8-15.2-6.4 7.5-12.7 15.2-6.3 7.6-10.2 12.8-2.9 4.8-6.8 10.3-3.9 5.4-8.7 10.1-4.6 4.7-10.2 7.7-5.4 3-11.7 3z"/>
</svg>